<?xml version="1.0" standalone="no"?>
<!DOCTYPE svg PUBLIC "-//W3C//DTD SVG 20010904//EN"
 "http://www.w3.org/TR/2001/REC-SVG-20010904/DTD/svg10.dtd">
<svg version="1.0" xmlns="http://www.w3.org/2000/svg"
 width="200.000000pt" height="200.000000pt" viewBox="0 0 200.000000 200.000000"
 preserveAspectRatio="xMidYMid meet">
<metadata>
Created by potrace 1.16, written by Peter Selinger 2001-2019
</metadata>
<g transform="translate(0.000000,200.000000) scale(0.100000,-0.100000)"
fill="#000000" stroke="none">
<path d="M615 1979 c-22 -12 -56 -36 -75 -54 -19 -18 -46 -38 -60 -45 -14 -7
-31 -22 -39 -33 -8 -11 -34 -42 -57 -68 -82 -93 -144 -202 -169 -300 -9 -35
-20 -68 -25 -74 -4 -5 -10 -28 -13 -50 -3 -22 -9 -53 -12 -70 -4 -16 -8 -46
-10 -65 -2 -19 -6 -71 -10 -115 -8 -86 13 -264 39 -340 17 -48 14 -55 -24 -55
-16 0 -31 -3 -33 -7 -3 -5 -1 -45 3 -91 7 -64 17 -100 45 -156 55 -112 101
-152 93 -81 -3 26 0 35 10 35 12 0 13 17 8 103 -4 56 -12 130 -18 165 -5 35
-8 109 -6 165 4 106 2 100 74 239 8 14 14 37 14 51 0 14 4 37 10 51 6 17 6 26
0 26 -6 0 -10 5 -10 11 0 6 9 8 20 4 20 -6 28 9 11 20 -6 3 -6 18 0 37 6 21 5
36 -2 45 -6 7 -8 13 -4 13 4 0 2 6 -4 14 -21 25 17 112 76 176 68 74 155 117
264 131 44 5 91 14 105 19 14 6 38 10 52 10 15 0 53 9 84 20 49 17 73 19 195
14 76 -3 151 -5 166 -5 15 0 25 -4 22 -9 -3 -5 -1 -11 5 -15 5 -3 10 -2 10 2
0 5 9 9 19 10 14 1 18 -3 14 -13 -3 -8 1 -14 11 -14 16 0 20 -11 16 -40 -1 -8
1 -12 5 -8 4 4 23 -8 42 -25 38 -34 83 -124 83 -164 0 -15 10 -33 26 -45 14
-12 23 -27 20 -35 -6 -15 10 -91 27 -133 6 -14 11 -31 13 -38 1 -8 6 -21 10
-30 3 -9 7 -46 8 -82 1 -36 8 -98 16 -138 22 -122 33 -72 27 130 -6 192 -11
248 -27 278 -6 10 -10 27 -10 37 0 10 -11 41 -25 68 -13 28 -25 57 -25 65 0 9
-11 32 -25 52 -14 20 -25 42 -25 48 0 10 -20 50 -30 60 -3 3 -14 22 -25 42
-10 20 -21 35 -25 33 -3 -2 -14 15 -25 37 -21 44 -94 132 -103 123 -3 -2 -11
4 -19 15 -18 26 -73 64 -73 50 0 -6 11 -15 24 -20 23 -9 45 -30 30 -30 -4 0
-36 16 -71 35 l-64 35 -257 0 c-242 0 -260 -1 -297 -21z"/>
<path d="M1145 1223 c-30 -8 -66 -55 -62 -80 3 -15 -1 -23 -9 -23 -8 0 -14 -4
-14 -10 0 -5 4 -10 9 -10 6 0 7 -23 4 -54 -6 -57 -8 -52 58 -112 61 -54 177
-79 253 -54 46 15 39 26 -23 34 -29 4 -51 12 -55 21 -3 9 -19 16 -38 16 -18 1
0 6 41 11 49 6 84 6 104 -1 34 -12 87 -15 87 -4 0 4 -12 24 -26 45 -34 48 -98
79 -180 86 -35 2 -67 9 -71 15 -10 16 58 65 109 78 26 7 46 15 43 17 -2 2 -37
10 -77 18 -74 14 -116 16 -153 7z m227 -228 c0 -5 -5 -11 -11 -13 -6 -2 -11 4
-11 13 0 9 5 15 11 13 6 -2 11 -8 11 -13z"/>
<path d="M630 1160 c-19 -4 -51 -10 -70 -14 -62 -13 -133 -58 -153 -98 -19
-39 -41 -143 -40 -193 0 -16 -7 -35 -16 -42 -14 -11 -14 -12 5 -13 12 0 34 5
51 10 21 8 42 7 74 -1 24 -7 73 -11 108 -10 80 2 161 42 238 118 52 51 53 52
53 111 0 78 16 97 78 92 30 -2 28 8 -3 20 -20 7 -32 6 -51 -6 -17 -11 -28 -13
-37 -6 -39 32 -160 49 -237 32z m19 -101 c57 -20 28 -39 -61 -39 -56 0 -69 20
-24 37 40 15 47 15 85 2z"/>
<path d="M796 769 c-38 -57 -28 -70 12 -14 34 49 37 55 23 55 -4 0 -20 -18
-35 -41z"/>
<path d="M1702 797 c-12 -14 -5 -57 9 -57 5 0 9 16 9 35 0 38 -2 41 -18 22z"/>
<path d="M828 720 c-23 -22 -48 -38 -56 -35 -7 2 -15 -2 -19 -11 -5 -13 -7
-13 -14 -2 -7 10 -9 11 -9 0 0 -7 -4 -11 -9 -8 -5 4 -21 -9 -36 -26 -15 -18
-36 -36 -46 -40 -11 -4 -19 -14 -19 -21 0 -27 -60 -42 -151 -39 -74 2 -89 0
-109 -18 -36 -31 -52 -70 -45 -109 13 -68 16 -111 7 -111 -9 0 -32 -43 -32
-59 0 -5 18 -16 40 -25 22 -9 40 -20 40 -25 0 -5 20 -38 45 -74 24 -35 47 -76
51 -91 l6 -26 141 0 142 0 -53 51 c-28 29 -52 58 -52 65 0 8 -4 14 -9 14 -5 0
-12 8 -15 18 -4 10 -21 23 -39 30 -19 7 -40 23 -47 37 -7 14 -17 25 -22 25 -5
0 -7 4 -4 9 3 5 -1 11 -9 15 -20 7 -20 56 1 56 8 0 12 5 9 10 -3 6 0 11 7 11
24 2 43 -3 50 -14 5 -7 36 -12 79 -12 70 0 73 -1 80 -27 4 -15 16 -37 28 -49
21 -23 29 -55 11 -44 -5 3 -10 0 -10 -9 0 -27 12 -46 29 -46 9 0 30 -9 47 -19
27 -16 39 -18 75 -10 24 6 52 8 61 6 10 -3 18 -1 18 4 0 5 13 9 29 9 22 0 37
11 65 44 38 47 45 66 23 66 -18 0 -47 32 -47 52 0 10 -12 15 -37 17 -33 2 -69
6 -96 10 -5 0 -5 6 -2 11 3 6 23 10 43 10 20 0 50 7 67 16 22 11 57 15 140 14
118 -2 186 8 193 28 3 9 -17 12 -75 13 -43 1 -91 3 -108 5 -16 2 -59 6 -95 9
-92 8 -95 10 -60 43 21 20 30 39 30 61 0 17 5 31 11 31 11 0 9 16 -6 54 -7 16
-6 17 14 7 12 -7 34 -11 49 -9 37 4 44 49 10 65 -13 6 -45 20 -72 33 -31 14
-51 19 -55 12 -7 -11 -80 5 -119 26 -20 12 -26 9 -64 -28z m-43 -87 c9 -20 7
-55 -4 -63 -3 -3 -7 -16 -9 -30 -1 -13 -6 -27 -11 -30 -5 -3 -10 -14 -12 -24
-2 -11 -10 -21 -18 -24 -9 -3 -11 0 -6 9 6 11 5 12 -6 2 -21 -20 -26 -16 -31
22 -2 22 1 40 9 47 7 6 13 14 13 18 0 12 53 90 61 90 4 0 10 -8 14 -17z m-15
-317 c0 -3 -4 -8 -10 -11 -5 -3 -10 -1 -10 4 0 6 5 11 10 11 6 0 10 -2 10 -4z"/>
<path d="M1270 664 c0 -16 56 -96 101 -144 28 -30 56 -66 61 -81 l9 -28 20 20
c11 11 23 36 26 55 5 31 1 39 -36 74 -23 22 -44 40 -47 40 -3 0 -30 16 -60 35
-52 33 -74 42 -74 29z"/>
<path d="M285 353 c-4 -17 -2 -29 6 -34 19 -12 27 -2 21 26 -6 36 -19 40 -27
8z"/>
<path d="M1471 151 c-18 -14 -23 -25 -19 -49 3 -20 0 -33 -9 -36 -7 -3 -13
-15 -13 -26 0 -11 -4 -20 -10 -20 -5 0 -7 7 -4 15 4 10 0 15 -11 15 -11 0 -15
-5 -11 -15 3 -8 -2 -19 -12 -24 -13 -8 -5 -10 35 -11 l51 0 52 75 c28 42 49
79 46 84 -10 15 -71 10 -95 -8z"/>
</g>
</svg>
